{
  "accessors": [
    {
      "bufferView": 2,
      "componentType": 5126,
      "count": 4608,
      "max": [
        2.1167550086975098,
        0.4597960114479065,
        0.6512389779090881
      ],
      "min": [
        -1.9100840091705322,
        -0.9646409749984741,
        0.3990280032157898
      ],
      "type": "VEC3"
    },
    {
      "bufferView": 2,
      "byteOffset": 55296,
      "componentType": 5126,
      "count": 4608,
      "max": [
        1.0,
        1.0,
        1.0
      ],
      "min": [
        -1.0,
        -1.0,
        -1.0
      ],
      "type": "VEC3"
    },
    {
      "bufferView": 1,
      "componentType": 5126,
      "count": 4608,
      "max": [
        0.8707960247993469,
        0.999763011932373
      ],
      "min": [
        0.12492100149393082,
        0.0
      ],
      "type": "VEC2"
    },
    {
      "bufferView": 0,
      "componentType": 5125,
      "count": 6876,
      "type": "SCALAR"
    },
    {
      "bufferView": 2,
      "byteOffset": 110592,
      "componentType": 5126,
      "count": 62811,
      "max": [
        2.8546810150146484,
        1.071671962738037,
        2.1399149894714355
      ],
      "min": [
        -2.6481568813323975,
        0.4577459990978241,
        -0.03399600088596344
      ],
      "type": "VEC3"
    },
    {
      "bufferView": 2,
      "byteOffset": 864324,
      "componentType": 5126,
      "count": 62811,
      "max": [
        1.0,
        1.0,
        1.0
      ],
      "min": [
        -1.0,
        -1.0,
        -1.0
      ],
      "type": "VEC3"
    },
    {
      "bufferView": 1,
      "byteOffset": 36864,
      "componentType": 5126,
      "count": 62811,
      "max": [
        0.875,
        0.5372719764709473
      ],
      "min": [
        0.125,
        0.22006699442863464
      ],
      "type": "VEC2"
    },
    {
      "bufferView": 0,
      "byteOffset": 27504,
      "componentType": 5125,
      "count": 370947,
      "type": "SCALAR"
    },
    {
      "bufferView": 2,
      "byteOffset": 1618056,
      "componentType": 5126,
      "count": 10251,
      "max": [
        2.8575050830841064,
        0.694167971611023,
        1.3415299654006958
      ],
      "min": [
        -2.650952100753784,
        -1.0562469959259033,
        -0.03399600088596344
      ],
      "type": "VEC3"
    },
    {
      "bufferView": 2,
      "byteOffset": 1741068,
      "componentType": 5126,
      "count": 10251,
      "max": [
        0.9999973773956299,
        1.0,
        1.0
      ],
      "min": [
        -0.9999939203262329,
        -1.0,
        -1.0
      ],
      "type": "VEC3"
    },
    {
      "bufferView": 1,
      "byteOffset": 539352,
      "componentType": 5126,
      "count": 10251,
      "max": [
        0.875,
        1.0
      ],
      "min": [
        0.125,
        0.0
      ],
      "type": "VEC2"
    },
    {
      "bufferView": 0,
      "byteOffset": 1511292,
      "componentType": 5125,
      "count": 57243,
      "type": "SCALAR"
    }
  ],
  "asset": {
    "extras": {
      "author": "NeoFlixVegas (https://sketchfab.com/NeoFlixVegas)",
      "license": "CC-BY-4.0 (http://creativecommons.org/licenses/by/4.0/)",
      "source": "https://sketchfab.com/3d-models/sofa-from-the-simpsons-30b0f334fc47410586018026ec1d2c49",
      "title": "Sofa, from 'The Simpsons'"
    },
    "generator": "Sketchfab-15.24.0",
    "version": "2.0"
  },
  "bufferViews": [
    {
      "buffer": 0,
      "byteLength": 1740264,
      "name": "floatBufferViews",
      "target": 34963
    },
    {
      "buffer": 0,
      "byteLength": 621360,
      "byteOffset": 1740264,
      "byteStride": 8,
      "name": "floatBufferViews",
      "target": 34962
    },
    {
      "buffer": 0,
      "byteLength": 1864080,
      "byteOffset": 2361624,
      "byteStride": 12,
      "name": "floatBufferViews",
      "target": 34962
    }
  ],
  "buffers": [
    {
      "byteLength": 4225704,
      "uri": "scene.bin"
    }
  ],
  "materials": [
    {
      "doubleSided": true,
      "name": "Sofa",
      "pbrMetallicRoughness": {
        "baseColorFactor": [
          0.132901,
          0.029951,
          0.019088,
          1.0
        ],
        "metallicFactor": 0.0
      }
    }
  ],
  "meshes": [
    {
      "name": "Object_0",
      "primitives": [
        {
          "attributes": {
            "NORMAL": 1,
            "POSITION": 0,
            "TEXCOORD_0": 2
          },
          "indices": 3,
          "material": 0,
          "mode": 4
        }
      ]
    },
    {
      "name": "Object_1",
      "primitives": [
        {
          "attributes": {
            "NORMAL": 5,
            "POSITION": 4,
            "TEXCOORD_0": 6
          },
          "indices": 7,
          "material": 0,
          "mode": 4
        }
      ]
    },
    {
      "name": "Object_2",
      "primitives": [
        {
          "attributes": {
            "NORMAL": 9,
            "POSITION": 8,
            "TEXCOORD_0": 10
          },
          "indices": 11,
          "material": 0,
          "mode": 4
        }
      ]
    }
  ],
  "nodes": [
    {
      "children": [
        1
      ],
      "matrix": [
        1.0,
        0.0,
        0.0,
        0.0,
        0.0,
        2.220446049250313e-16,
        -1.0,
        0.0,
        0.0,
        1.0,
        2.220446049250313e-16,
        0.0,
        0.0,
        0.0,
        0.0,
        1.0
      ],
      "name": "Sketchfab_model"
    },
    {
      "children": [
        2,
        3,
        4
      ],
      "name": "Sofa.obj.cleaner.materialmerger.gles"
    },
    {
      "mesh": 0,
      "name": "Object_2"
    },
    {
      "mesh": 1,
      "name": "Object_3"
    },
    {
      "mesh": 2,
      "name": "Object_4"
    }
  ],
  "scene": 0,
  "scenes": [
    {
      "name": "Sketchfab_Scene",
      "nodes": [
        0
      ]
    }
  ]
}
